<mxfile host="Electron" agent="Mozilla/5.0 (Macintosh; Intel Mac OS X 10_15_7) AppleWebKit/537.36 (KHTML, like Gecko) draw.io/25.0.2 Chrome/128.0.6613.186 Electron/32.2.5 Safari/537.36" border="50" scale="3" compressed="false" locked="false" version="25.0.2">
  <diagram name="Blank" id="YmL12bMKpDGza6XwsDPr">
    <mxGraphModel dx="2174" dy="744" grid="0" gridSize="10" guides="1" tooltips="1" connect="1" arrows="0" fold="1" page="0" pageScale="1" pageWidth="827" pageHeight="1169" background="none" math="1" shadow="0">
      <root>
        <mxCell id="X5NqExCQtvZxIxQ7pmgY-0" />
        <mxCell id="1" parent="X5NqExCQtvZxIxQ7pmgY-0" />
        <mxCell id="7fYKbIvwsxHzfeDW7NYz-28" value="" style="rounded=0;whiteSpace=wrap;html=1;" parent="1" vertex="1">
          <mxGeometry x="-233" y="402" width="1418" height="358" as="geometry" />
        </mxCell>
        <mxCell id="7fYKbIvwsxHzfeDW7NYz-23" value="" style="group" parent="1" vertex="1" connectable="0">
          <mxGeometry x="-207" y="472" width="159" height="134" as="geometry" />
        </mxCell>
        <mxCell id="7fYKbIvwsxHzfeDW7NYz-7" value="&lt;pre style=&quot;font-variant-numeric: normal; font-variant-east-asian: normal; font-variant-alternates: normal; font-size-adjust: none; font-kerning: auto; font-optical-sizing: auto; font-feature-settings: normal; font-variation-settings: normal; font-variant-position: normal; font-stretch: normal; line-height: 1.45; box-sizing: border-box; margin-top: 16px; margin-bottom: 16px; padding: 16px; overflow: auto; border-radius: 3px; text-align: start;&quot; class=&quot;code-fence&quot;&gt;&lt;font face=&quot;JetBrains Mono, Consolas, Liberation Mono, Menlo, Courier, monospace&quot; color=&quot;#080808&quot;&gt;&lt;span style=&quot;font-size: 11.05px;&quot;&gt;spark:&lt;br&gt;  executor:&lt;br&gt;    &lt;b&gt;instances: 1&lt;/b&gt;&lt;/span&gt;&lt;span style=&quot;font-size: 0.85em;&quot;&gt;&lt;br&gt;&lt;/span&gt;&lt;/font&gt;&lt;/pre&gt;" style="shape=step;perimeter=stepPerimeter;whiteSpace=wrap;html=1;fixedSize=1;" parent="7fYKbIvwsxHzfeDW7NYz-23" vertex="1">
          <mxGeometry x="3" y="36" width="156" height="98" as="geometry" />
        </mxCell>
        <mxCell id="7fYKbIvwsxHzfeDW7NYz-16" value="&lt;b&gt;application.yml&lt;/b&gt;" style="text;html=1;align=center;verticalAlign=middle;whiteSpace=wrap;rounded=0;" parent="7fYKbIvwsxHzfeDW7NYz-23" vertex="1">
          <mxGeometry x="18" y="33" width="119" height="30" as="geometry" />
        </mxCell>
        <mxCell id="7fYKbIvwsxHzfeDW7NYz-18" value="&lt;b&gt;daily-sales-report-job&lt;/b&gt;" style="text;html=1;align=center;verticalAlign=middle;whiteSpace=wrap;rounded=0;fillColor=#E6E6E6;fillStyle=solid;" parent="7fYKbIvwsxHzfeDW7NYz-23" vertex="1">
          <mxGeometry width="143" height="30" as="geometry" />
        </mxCell>
        <mxCell id="7fYKbIvwsxHzfeDW7NYz-24" value="" style="group" parent="1" vertex="1" connectable="0">
          <mxGeometry x="130" y="447.5" width="274" height="183" as="geometry" />
        </mxCell>
        <mxCell id="7fYKbIvwsxHzfeDW7NYz-6" value="&lt;pre style=&quot;font-variant-numeric: normal; font-variant-east-asian: normal; font-variant-alternates: normal; font-size-adjust: none; font-kerning: auto; font-optical-sizing: auto; font-feature-settings: normal; font-variation-settings: normal; font-variant-position: normal; font-stretch: normal; line-height: 1.45; box-sizing: border-box; margin-top: 16px; margin-bottom: 16px; padding: 16px; overflow: auto; border-radius: 3px; text-align: start;&quot; class=&quot;code-fence&quot;&gt;&lt;font face=&quot;JetBrains Mono, Consolas, Liberation Mono, Menlo, Courier, monospace&quot; color=&quot;#080808&quot;&gt;&lt;span style=&quot;font-size: 11.05px;&quot;&gt;&lt;b&gt;spark-launcher&lt;/b&gt;:&lt;br&gt;  &lt;b&gt;jobs&lt;/b&gt;:&lt;br&gt;    &lt;b&gt;daily-sales-report-job&lt;/b&gt;:&lt;br&gt;      spark-config:&lt;br&gt;        &lt;b&gt;spark.executor.instances: 2&lt;/b&gt;&lt;/span&gt;&lt;span style=&quot;font-size: 0.85em;&quot;&gt;&lt;br&gt;&lt;/span&gt;&lt;/font&gt;&lt;/pre&gt;" style="shape=step;perimeter=stepPerimeter;whiteSpace=wrap;html=1;fixedSize=1;" parent="7fYKbIvwsxHzfeDW7NYz-24" vertex="1">
          <mxGeometry y="37" width="274" height="146" as="geometry" />
        </mxCell>
        <mxCell id="7fYKbIvwsxHzfeDW7NYz-9" value="&lt;b&gt;application.yml&lt;/b&gt;" style="text;html=1;align=center;verticalAlign=middle;whiteSpace=wrap;rounded=0;" parent="7fYKbIvwsxHzfeDW7NYz-24" vertex="1">
          <mxGeometry x="75" y="37" width="119" height="30" as="geometry" />
        </mxCell>
        <mxCell id="7fYKbIvwsxHzfeDW7NYz-17" value="&lt;b&gt;sprk-job-service&lt;/b&gt;" style="text;html=1;align=center;verticalAlign=middle;whiteSpace=wrap;rounded=0;fillColor=#E6E6E6;fillStyle=solid;" parent="7fYKbIvwsxHzfeDW7NYz-24" vertex="1">
          <mxGeometry x="69" width="117" height="30" as="geometry" />
        </mxCell>
        <mxCell id="7fYKbIvwsxHzfeDW7NYz-25" value="" style="group" parent="1" vertex="1" connectable="0">
          <mxGeometry x="-33.5" y="472" width="156" height="136" as="geometry" />
        </mxCell>
        <mxCell id="7fYKbIvwsxHzfeDW7NYz-5" value="&lt;pre style=&quot;font-variant-numeric: normal; font-variant-east-asian: normal; font-variant-alternates: normal; font-size-adjust: none; font-kerning: auto; font-optical-sizing: auto; font-feature-settings: normal; font-variation-settings: normal; font-variant-position: normal; font-stretch: normal; line-height: 1.45; box-sizing: border-box; margin-top: 16px; margin-bottom: 16px; padding: 16px; overflow: auto; border-radius: 3px; text-align: start;&quot; class=&quot;code-fence&quot;&gt;&lt;font face=&quot;JetBrains Mono, Consolas, Liberation Mono, Menlo, Courier, monospace&quot; color=&quot;#080808&quot;&gt;&lt;span style=&quot;font-size: 11.05px;&quot;&gt;spark:&lt;br&gt;  executor:&lt;br&gt;    &lt;b&gt;instances: 3&lt;/b&gt;&lt;/span&gt;&lt;span style=&quot;font-size: 0.85em;&quot;&gt;&lt;br&gt;&lt;/span&gt;&lt;/font&gt;&lt;/pre&gt;" style="shape=step;perimeter=stepPerimeter;whiteSpace=wrap;html=1;fixedSize=1;" parent="7fYKbIvwsxHzfeDW7NYz-25" vertex="1">
          <mxGeometry y="38" width="156" height="98" as="geometry" />
        </mxCell>
        <mxCell id="7fYKbIvwsxHzfeDW7NYz-10" value="&lt;b&gt;sprk-job-service&lt;/b&gt;" style="text;html=1;align=center;verticalAlign=middle;whiteSpace=wrap;rounded=0;fillColor=#E6E6E6;fillStyle=solid;" parent="7fYKbIvwsxHzfeDW7NYz-25" vertex="1">
          <mxGeometry x="11" width="117" height="30" as="geometry" />
        </mxCell>
        <mxCell id="7fYKbIvwsxHzfeDW7NYz-11" value="&lt;b&gt;application.yml&lt;/b&gt;" style="text;html=1;align=center;verticalAlign=middle;whiteSpace=wrap;rounded=0;" parent="7fYKbIvwsxHzfeDW7NYz-25" vertex="1">
          <mxGeometry x="25" y="36" width="106" height="30" as="geometry" />
        </mxCell>
        <mxCell id="7fYKbIvwsxHzfeDW7NYz-26" value="" style="group" parent="1" vertex="1" connectable="0">
          <mxGeometry x="415" y="460.5" width="260" height="157" as="geometry" />
        </mxCell>
        <mxCell id="7fYKbIvwsxHzfeDW7NYz-4" value="&lt;div&gt;&amp;nbsp; &amp;nbsp; spec:&amp;nbsp; &amp;nbsp; &amp;nbsp; &amp;nbsp; &amp;nbsp; &amp;nbsp; &amp;nbsp; &amp;nbsp; &amp;nbsp; &amp;nbsp; &amp;nbsp; &amp;nbsp; &amp;nbsp; &amp;nbsp; &amp;nbsp; &amp;nbsp; &amp;nbsp; &amp;nbsp; &amp;nbsp; &amp;nbsp; &amp;nbsp; &amp;nbsp; &amp;nbsp; &amp;nbsp; &amp;nbsp; &amp;nbsp; &amp;nbsp; &amp;nbsp; &amp;nbsp; &amp;nbsp;&lt;/div&gt;&lt;div&gt;&amp;nbsp; &amp;nbsp; &amp;nbsp; containers:&amp;nbsp; &amp;nbsp; &amp;nbsp; &amp;nbsp; &amp;nbsp; &amp;nbsp; &amp;nbsp; &amp;nbsp; &amp;nbsp; &amp;nbsp; &amp;nbsp; &amp;nbsp; &amp;nbsp; &amp;nbsp; &amp;nbsp; &amp;nbsp; &amp;nbsp; &amp;nbsp; &amp;nbsp; &amp;nbsp; &amp;nbsp; &amp;nbsp; &amp;nbsp;&lt;/div&gt;&lt;div&gt;&amp;nbsp; &amp;nbsp; &amp;nbsp; &amp;nbsp; &amp;nbsp; &amp;nbsp; &amp;nbsp; - name: spark-job-service&amp;nbsp; &amp;nbsp; &amp;nbsp; &amp;nbsp; &amp;nbsp; &amp;nbsp; &amp;nbsp; &amp;nbsp; &amp;nbsp; &amp;nbsp; &amp;nbsp;&amp;nbsp;&lt;/div&gt;&lt;div&gt;&amp;nbsp; &amp;nbsp; &amp;nbsp; &amp;nbsp; &amp;nbsp; &amp;nbsp; &amp;nbsp; &amp;nbsp;args:&amp;nbsp; &amp;nbsp; &amp;nbsp; &amp;nbsp; &amp;nbsp; &amp;nbsp; &amp;nbsp; &amp;nbsp; &amp;nbsp; &amp;nbsp; &amp;nbsp; &amp;nbsp; &amp;nbsp; &amp;nbsp; &amp;nbsp; &amp;nbsp; &amp;nbsp; &amp;nbsp; &amp;nbsp; &amp;nbsp; &amp;nbsp; &amp;nbsp; &amp;nbsp; &amp;nbsp; &amp;nbsp; &amp;nbsp;&lt;/div&gt;&lt;div&gt;&amp;nbsp; &amp;nbsp; &amp;nbsp; &amp;nbsp; &amp;nbsp; &amp;nbsp; &amp;nbsp; - &quot;--&lt;b&gt;spark.executor.instances=5&lt;/b&gt;&quot;&lt;/div&gt;" style="shape=step;perimeter=stepPerimeter;whiteSpace=wrap;html=1;fixedSize=1;" parent="7fYKbIvwsxHzfeDW7NYz-26" vertex="1">
          <mxGeometry y="34" width="260" height="123" as="geometry" />
        </mxCell>
        <mxCell id="7fYKbIvwsxHzfeDW7NYz-14" value="&lt;b&gt;deployment.yml&lt;/b&gt;" style="text;html=1;align=center;verticalAlign=middle;whiteSpace=wrap;rounded=0;" parent="7fYKbIvwsxHzfeDW7NYz-26" vertex="1">
          <mxGeometry x="66.5" y="34" width="106" height="30" as="geometry" />
        </mxCell>
        <mxCell id="7fYKbIvwsxHzfeDW7NYz-15" value="&lt;b&gt;sprk-job-service&lt;/b&gt;" style="text;html=1;align=center;verticalAlign=middle;whiteSpace=wrap;rounded=0;fillColor=#E6E6E6;fillStyle=solid;" parent="7fYKbIvwsxHzfeDW7NYz-26" vertex="1">
          <mxGeometry x="61" width="117" height="30" as="geometry" />
        </mxCell>
        <mxCell id="7fYKbIvwsxHzfeDW7NYz-32" value="" style="group" parent="1" vertex="1" connectable="0">
          <mxGeometry x="989" y="487" width="178" height="124.5" as="geometry" />
        </mxCell>
        <mxCell id="7fYKbIvwsxHzfeDW7NYz-29" value="&lt;b&gt;spark.executor.instances=4&lt;/b&gt;" style="shape=document;whiteSpace=wrap;html=1;boundedLbl=1;" parent="7fYKbIvwsxHzfeDW7NYz-32" vertex="1">
          <mxGeometry y="37" width="178" height="87.5" as="geometry" />
        </mxCell>
        <mxCell id="7fYKbIvwsxHzfeDW7NYz-31" value="&lt;b&gt;Final Configuration&lt;/b&gt;" style="text;html=1;align=center;verticalAlign=middle;whiteSpace=wrap;rounded=0;fillColor=#E6E6E6;fillStyle=solid;" parent="7fYKbIvwsxHzfeDW7NYz-32" vertex="1">
          <mxGeometry x="22" width="129" height="30" as="geometry" />
        </mxCell>
        <mxCell id="7fYKbIvwsxHzfeDW7NYz-33" value="" style="group" parent="1" vertex="1" connectable="0">
          <mxGeometry x="682" y="440" width="283" height="198" as="geometry" />
        </mxCell>
        <mxCell id="7fYKbIvwsxHzfeDW7NYz-1" value="&lt;pre style=&quot;font-variant-numeric: normal; font-variant-east-asian: normal; font-variant-alternates: normal; font-size-adjust: none; font-kerning: auto; font-optical-sizing: auto; font-feature-settings: normal; font-variation-settings: normal; font-variant-position: normal; font-stretch: normal; font-size: 0.85em; line-height: 1.45; font-family: &amp;quot;JetBrains Mono&amp;quot;, Consolas, &amp;quot;Liberation Mono&amp;quot;, Menlo, Courier, monospace; box-sizing: border-box; margin-top: 16px; margin-bottom: 16px; padding: 16px; overflow: auto; border-radius: 3px; color: rgb(8, 8, 8); text-align: start;&quot; class=&quot;code-fence&quot;&gt;&lt;code style=&quot;box-sizing: border-box; font-variant-numeric: normal; font-variant-east-asian: normal; font-variant-alternates: normal; font-variant-position: normal; font-kerning: auto; font-optical-sizing: auto; font-feature-settings: normal; font-variation-settings: normal; font-stretch: normal; font-size: 11.05px; line-height: inherit; font-family: &amp;quot;JetBrains Mono&amp;quot;, Consolas, &amp;quot;Liberation Mono&amp;quot;, Menlo, Courier, monospace; padding: 0px; margin: 0px; border-radius: 3px; background-image: initial; background-position: initial; background-size: initial; background-repeat: initial; background-attachment: initial; background-origin: initial; background-clip: initial; word-break: normal; border: 0px; display: inline; max-width: initial; overflow: initial; overflow-wrap: normal;&quot; class=&quot;language-curl&quot;&gt;&lt;span style=&quot;box-sizing: border-box;&quot;&gt;{&lt;br&gt;&lt;/span&gt;&lt;span style=&quot;box-sizing: border-box;&quot;&gt;  &quot;jobName&quot;: &quot;daily-sales-report-job&quot;,&lt;/span&gt;&lt;span style=&quot;box-sizing: border-box;&quot;&gt;&lt;br&gt;&lt;/span&gt;&lt;span style=&quot;box-sizing: border-box;&quot;&gt;  &lt;b&gt;&quot;sparkConfigs&quot;: {&lt;br&gt;&lt;/b&gt;&lt;/span&gt;&lt;b&gt;&lt;span style=&quot;box-sizing: border-box;&quot;&gt;    &quot;spark.executor.instances&quot;: 4&lt;/span&gt;&lt;span style=&quot;box-sizing: border-box;&quot;&gt;&lt;br&gt;&lt;/span&gt;&lt;/b&gt;&lt;span style=&quot;box-sizing: border-box;&quot;&gt;&lt;b&gt;  }&lt;/b&gt;,&lt;br&gt;&lt;/span&gt;&lt;span style=&quot;box-sizing: border-box;&quot;&gt;  &quot;month&quot;: &quot;2024-11&quot;&lt;br&gt;&lt;/span&gt;&lt;span style=&quot;box-sizing: border-box;&quot;&gt;}&lt;/span&gt;&lt;/code&gt;&lt;/pre&gt;" style="shape=step;perimeter=stepPerimeter;whiteSpace=wrap;html=1;fixedSize=1;" parent="7fYKbIvwsxHzfeDW7NYz-33" vertex="1">
          <mxGeometry y="38" width="283" height="160" as="geometry" />
        </mxCell>
        <mxCell id="7fYKbIvwsxHzfeDW7NYz-12" value="&lt;b&gt;Job Start Request&lt;/b&gt;" style="text;html=1;align=center;verticalAlign=middle;whiteSpace=wrap;rounded=0;fillColor=#E6E6E6;fillStyle=solid;" parent="7fYKbIvwsxHzfeDW7NYz-33" vertex="1">
          <mxGeometry x="76" width="117" height="30" as="geometry" />
        </mxCell>
        <mxCell id="7fYKbIvwsxHzfeDW7NYz-13" value="&lt;b&gt;DailySalesReportJobLaunchRequest&lt;/b&gt;" style="text;html=1;align=center;verticalAlign=middle;whiteSpace=wrap;rounded=0;" parent="7fYKbIvwsxHzfeDW7NYz-33" vertex="1">
          <mxGeometry x="21" y="38" width="234" height="30" as="geometry" />
        </mxCell>
        <mxCell id="7fYKbIvwsxHzfeDW7NYz-46" value="" style="group;fillStyle=solid;labelBackgroundColor=none;textShadow=0;" parent="1" vertex="1" connectable="0">
          <mxGeometry x="-174" y="687" width="1296" height="43" as="geometry" />
        </mxCell>
        <mxCell id="7fYKbIvwsxHzfeDW7NYz-34" value="&lt;font style=&quot;font-size: 18px;&quot;&gt;Configurations Precedence Order&lt;/font&gt;" style="shape=step;perimeter=stepPerimeter;whiteSpace=wrap;html=1;fixedSize=1;fillStyle=auto;rounded=1;shadow=1;gradientColor=#01983b;gradientDirection=east;" parent="7fYKbIvwsxHzfeDW7NYz-46" vertex="1">
          <mxGeometry width="1296" height="43" as="geometry" />
        </mxCell>
        <mxCell id="7fYKbIvwsxHzfeDW7NYz-44" value="" style="endArrow=none;html=1;rounded=0;" parent="7fYKbIvwsxHzfeDW7NYz-46" edge="1">
          <mxGeometry width="50" height="50" relative="1" as="geometry">
            <mxPoint x="370.1493887924748" y="20.829999999999927" as="sourcePoint" />
            <mxPoint x="491.24943481537304" y="20.829999999999927" as="targetPoint" />
          </mxGeometry>
        </mxCell>
        <mxCell id="7fYKbIvwsxHzfeDW7NYz-45" value="" style="endArrow=classic;html=1;rounded=0;" parent="7fYKbIvwsxHzfeDW7NYz-46" edge="1">
          <mxGeometry width="50" height="50" relative="1" as="geometry">
            <mxPoint x="797.9140919366993" y="20.83000000000004" as="sourcePoint" />
            <mxPoint x="925.8538055764883" y="20.83000000000004" as="targetPoint" />
          </mxGeometry>
        </mxCell>
      </root>
    </mxGraphModel>
  </diagram>
</mxfile>
